<?xml version="1.0" encoding="UTF-8" standalone="no" ?>
<!DOCTYPE svg PUBLIC "-//W3C//DTD SVG 1.1//EN" "http://www.w3.org/Graphics/SVG/1.1/DTD/svg11.dtd">
<svg xmlns="http://www.w3.org/2000/svg" xmlns:xlink="http://www.w3.org/1999/xlink" version="1.1" width="640" height="480" viewBox="0 0 640 480" xml:space="preserve">
<desc>Created with Fabric.js 3.6.6</desc>
<defs>
</defs>
<g transform="matrix(1 0 0 1 75.06 50.65)"  >
<path xmlns="http://www.w3.org/2000/svg" d="M1417.417,1113.735c7.219-3.637,4.406,39.017,4.065,44.539c0.755,13.382-15.868,60.505-3.301,61.531    c0.767,0.769,1.586,1.489,2.323,2.286c0.072,2.337,0.763,3.802-6.309,4.544c-1.643,0.228-5.022-3.564-5.995-4.564    c-0.569-0.196-0.777,0.678-1.348,0.456c-7.67-2.662-5.066-2.241-7.591-2.291c0,0.611-0.002,1.224,0,1.837    c5.804,4.801,7.023,8.458-0.479,9.634c-0.159-0.162-0.318-0.323-0.474-0.482c-0.811,0.044-1.583,0.313-2.37,0.486    c-2.134-1.04-3.63-2.235-3.777-4.588c-2.527,1.564-5.51,2.288-8.468,2.296c-1.46-2.481-3.207-4.85-6.087-5.065    c-4.568,12.861-46.04-9.89-8.095-12.367c-0.808-9.471-7.159-46.001,19.414-57.775c14.507-4.909,1.46-3.354,1.861-17.387    c0.126-0.188,0.295-0.337,0.451-0.499c-2.034-4.602-4.827-11.506-4.723-16.511c0.322-0.296,0.635-0.601,0.941-0.913    c7.355,1.346,6.829,10.58,20.357,5.845C1411.464,1123.331,1412.752,1116.185,1417.417,1113.735 M1402.048,1213.292    c-0.574,0.3-1.201,0.491-1.846,0.551c0.002,0.146,0.003,0.291,0.005,0.439c2.204,0.149,4.408,0.3,6.611,0.459    c-0.149-1.524-0.312-3.045-0.467-4.567C1404.996,1211.314,1403.64,1212.49,1402.048,1213.292 M1365.261,1220.24    c0,0.151,0,0.305,0,0.457c4.37,0.61,2.952,0.71,7.088-0.461c0-0.114-0.002-0.343-0.002-0.457    C1369.981,1219.809,1367.625,1220.099,1365.261,1220.24 M1389.341,1221.158c0.482,0.454,0.953,0.923,1.432,1.38    c-0.002-0.461-0.002-0.92-0.002-1.378C1390.294,1221.156,1389.817,1221.156,1389.341,1221.158z"/>
</g>
</svg>
