<?xml version="1.0" encoding="UTF-8" standalone="no" ?>
<!DOCTYPE svg PUBLIC "-//W3C//DTD SVG 1.1//EN" "http://www.w3.org/Graphics/SVG/1.1/DTD/svg11.dtd">
<svg xmlns="http://www.w3.org/2000/svg" xmlns:xlink="http://www.w3.org/1999/xlink" version="1.1" width="640" height="480" viewBox="0 0 640 480" xml:space="preserve">
<desc>Created with Fabric.js 3.6.6</desc>
<defs>
</defs>
<g transform="matrix(1 0 0 1 76.96 69.53)"  >
<path style="stroke: none; stroke-width: 1; stroke-dasharray: none; stroke-linecap: butt; stroke-dashoffset: 0; stroke-linejoin: miter; stroke-miterlimit: 4; fill: rgb(0,0,0); fill-rule: nonzero; opacity: 1;"  transform=" translate(-482.96, -614.53)" d="M 437.137 578.76 c 0.229 -3.588 0.332 -7.187 0.513 -10.778 c 1.449 0.176 -0.341 -1.617 7.241 7.971 c 2.568 0.456 5.132 0.931 7.698 1.398 c 12.597 -11.117 8.454 2.192 6.77 12.533 c -0.441 13.722 12.931 5.231 25.125 13.972 c 14.313 10.265 16.561 24.922 14.371 41.787 c 16.059 1.327 25.231 1.363 28.401 -14.958 c -0.916 -2.971 -1.923 -5.917 -2.869 -8.879 c 0.477 -0.31 0.936 -0.65 1.442 -0.911 c 0.479 -0.059 0.963 -0.018 1.445 -0.027 c 8.331 6.289 10.96 36.916 -34.684 31.835 c -1.293 0.402 -2.542 0.941 -3.832 1.358 c -3.539 -0.554 -7.066 -1.229 -10.599 -1.842 c -0.325 2.482 -5.788 3.875 -8.714 4.688 c -1.315 3.152 -4.35 4.216 -7.75 4.192 c -4.415 -2.879 -9.28 -4.53 -1.898 -9.348 c 0.162 -2.248 3.677 -3.486 5.8 -4.214 c 0.471 -2.655 0.997 -5.301 1.419 -7.962 c -0.749 -2.194 -1.6 -4.356 -2.373 -6.542 c -1.447 -0.317 -2.894 -0.625 -4.341 -0.935 c -14.083 39.456 -21.658 23.782 -19.343 21.475 c 1.593 -1.484 3.504 -2.558 5.338 -3.702 c 14.271 -24.578 -7.247 -22.938 -7.691 -53.337 c -2.113 -0.034 -2.818 -1.218 -2.891 -3.294 c -0.641 -0.62 -1.276 -1.243 -1.921 -1.859 c 0 -0.625 0 -1.248 0.007 -1.871 c 0.159 -0.156 0.318 -0.31 0.477 -0.462 c -0.162 -0.167 -0.327 -0.327 -0.489 -0.489 C 433.862 585.729 433.265 585.434 437.137 578.76 z" stroke-linecap="round" />
</g>
</svg>