<?xml version="1.0" encoding="UTF-8" standalone="no" ?>
<!DOCTYPE svg PUBLIC "-//W3C//DTD SVG 1.1//EN" "http://www.w3.org/Graphics/SVG/1.1/DTD/svg11.dtd">
<svg xmlns="http://www.w3.org/2000/svg" xmlns:xlink="http://www.w3.org/1999/xlink" version="1.1" width="640" height="480" viewBox="0 0 640 480" xml:space="preserve">
<desc>Created with Fabric.js 3.6.6</desc>
<defs>
</defs>
<g transform="matrix(1 0 0 1 85.35 63.32)"  >
<path xmlns="http://www.w3.org/2000/svg" d="M417.283,291.075c2.303,4.312,3.722,13.454,3.874,18.797c21.482,4.348,50.735-14.675,62.344,29.982    c1.531,0.699,3.41,6.216,3.854,7.57c0.193,9.73-6.398,15.823-14.935,20.186c-7.883,7.334-11.562,16.395-3.892,24.874    c-0.146,1.616,0.697,2.186-2.397,2.817c-9.996-5.589-12.859-23.482,10.141-37.59c2.526-2.838,5.711-8.598,2.447-10.336    c-1.498,2.293-4.1,2.845-6.81,2.861c0.161,0.157,0.325,0.317,0.494,0.477c0.246,4.777-7.15,10.495-11.044,13.562    c-0.559,1-0.355,3.249-4.433,5.68c-12.514-2.181,2.215-10.867,7.246-17.846c-1.456-0.774-2.898-1.576-4.356-2.342    c-3.392,1.539-20.707,2.296-21.715,2.357c-0.506-0.457-0.987-0.94-1.474-1.414c0.287-2.387-2.844-4.394,16.452-5.179    c-1.953-4.793-9.492-1.409-17.419,0.953c-6.636,22.386-4.824,27.372-12.58,27.225c-1.615-1.26-2.331-3.279-2.886-5.177    c5.454-8.503,4.2-13.56,4.356-18.752c-5.598,5.707-21.695,7.819-23.234,13.6c-5.037,3.693-7.793,2.336-8.659-0.442    c1.313-5.931,15.86-14.026,21.228-16.905c-1.15-8.329-2.006-7.198-12.523-28.13c-0.788-0.397-12.887-15.398-13.083-16.957    c0.167-0.157,0.337-0.318,0.508-0.479c3.043,0.241,6.075,0.635,9.115,0.946c0.716-2.85,10.166-4.437,14.062-5.154    C413.023,293.596,414.412,291.234,417.283,291.075z"/>
</g>
</svg>
