<?xml version="1.0" encoding="UTF-8" standalone="no" ?>
<!DOCTYPE svg PUBLIC "-//W3C//DTD SVG 1.1//EN" "http://www.w3.org/Graphics/SVG/1.1/DTD/svg11.dtd">
<svg xmlns="http://www.w3.org/2000/svg" xmlns:xlink="http://www.w3.org/1999/xlink" version="1.1" width="640" height="480" viewBox="0 0 640 480" xml:space="preserve">
<desc>Created with Fabric.js 3.6.6</desc>
<defs>
</defs>
<g transform="matrix(1 0 0 1 71.34 67.26)"  >
<path style="stroke: none; stroke-width: 1; stroke-dasharray: none; stroke-linecap: butt; stroke-dashoffset: 0; stroke-linejoin: miter; stroke-miterlimit: 4; fill: rgb(0,0,0); fill-rule: nonzero; opacity: 1;"  transform=" translate(-407.34, -723.25)" d="M 441.756 676.759 c 6.35 -1.39 10.946 -2.381 11.039 4.107 c -0.286 0.28 -0.573 0.558 -0.863 0.834 c -0.422 -0.008 -0.842 -0.008 -1.261 -0.007 c -0.992 -0.695 -1.988 -1.385 -2.983 -2.075 c -12.784 0.288 0.112 21.872 -9.761 42.06 c 3.921 21.453 -0.038 9.641 -1.275 29.237 c -1.342 1.099 -1.889 7.881 -2.589 12.908 c -1.285 1.526 -3.236 2.316 -5.112 2.831 c -6.641 -1.371 -5.981 -4.547 -0.374 -6.586 c 0.285 -2.72 1.232 -15.852 -1.258 -16.96 c -0.064 1.68 0.323 3.34 0.387 5.015 c -2.089 4.544 -4.234 9.065 -6.344 13.6 c -3.514 0.911 -1.848 0.836 -6.413 0.802 c -0.543 -0.556 -1.109 -1.085 -1.665 -1.623 c 0.065 -1.87 -0.736 -2.379 5.103 -3.735 c 0.697 -2.898 1.444 -5.785 2.114 -8.686 c -1.384 -3.677 -10.066 -11.305 -10.627 -16.039 c -0.271 -0.008 -0.538 -0.01 -0.806 -0.012 c -0.401 1.461 -2.805 4.193 -3.849 5.348 c 0.27 2.755 0.564 5.507 0.847 8.261 c -0.104 0.005 -0.313 0.013 -0.417 0.018 c 0.137 0.134 0.275 0.265 0.417 0.407 c -0.002 0.682 -0.003 1.363 0 2.048 c -0.142 0.137 -0.283 0.281 -0.422 0.427 c 0.136 0.129 0.275 0.26 0.415 0.395 c -0.851 21.781 -2.179 20.616 -6.413 21.435 c -9.115 -1.278 -4.084 -6.42 -0.807 -6.591 c -0.446 -4.832 -0.816 -9.672 -1.308 -14.5 c -2.291 2.598 -0.427 11.733 -4.762 15.724 c -5.916 5.523 -11.758 -4.509 -3.269 -4.934 c 1.225 -9.757 1.268 -24.27 -8.453 -24.326 c -10.368 -0.133 -19.115 -27.631 -19.166 -37.543 c 0.425 -0.554 0.851 -1.105 1.278 -1.656 c 7.002 0.622 2.907 11.909 24.653 0.002 c 0.692 0.765 0.523 -0.394 -0.442 9.066 c 16.863 -15.556 34.559 -9.099 47.584 6.617 C 440.744 700.505 431.383 683.538 441.756 676.759 z" stroke-linecap="round" />
</g>
</svg>