<?xml version="1.0" encoding="UTF-8" standalone="no" ?>
<!DOCTYPE svg PUBLIC "-//W3C//DTD SVG 1.1//EN" "http://www.w3.org/Graphics/SVG/1.1/DTD/svg11.dtd">
<svg xmlns="http://www.w3.org/2000/svg" xmlns:xlink="http://www.w3.org/1999/xlink" version="1.1" width="640" height="480" viewBox="0 0 640 480" xml:space="preserve">
<desc>Created with Fabric.js 3.6.6</desc>
<defs>
</defs>
<g transform="matrix(1 0 0 1 71.34 67.26)"  >
<path xmlns="http://www.w3.org/2000/svg" d="M353.79,266.459c0.35,0.491,0.687,0.993,1.03,1.491c0.014,1.698-1.073,15.443-5.008,20.038    c-1.949,5.813-2.18,6.673-2.516,15.617c0.62,1.484,1.337,2.928,1.991,4.398c7.477-1.135,7.41-2.525,9.55,4.877    c4.037,0.614,9.427,1.816,9.56,5.869c-0.682,0.464-1.313,1-2.012,1.434c-1.623,0.244-4.311-1.103-5.659-0.903    c-17.423,1.47-22.294,2.357-22.294,2.357c-2.75-0.276-6.998-2.353-6.998-2.353c-12.892,2.441-3.709,1.242-21.909,0.44    c-4.912,3.771-5.875,0.7-10.101,1.09c-10.168,1.104-16.903,0.009-25.596-8.421c-8.529,6.798-18.986,8.044-21.591-5.284    c-0.626-12.488,9.593-17.287,11.036-17.193c0.494,0.497,1.003,0.98,1.507,1.469c0.002,0.325,0.003,0.655,0.003,0.988    c-7.054,5.304-11.349,15.623-3.045,19.507c3.864,0.187,6.779-4.558,8.49-8.003c11.502-21.124,50.658-4.295,62.45-19.807    c-1.657-3.371-3.165-13.055-2.998-14.662c0.516-1.169,1.715-1.963,2.996-1.963c1.527,1.136,3.011,2.343,4.579,3.417    c9.27-0.56,4.616-0.661,9.019,0.01C347.841,269.747,351.907,266.849,353.79,266.459z"/>
</g>
</svg>
