<?xml version="1.0" encoding="UTF-8" standalone="no" ?>
<!DOCTYPE svg PUBLIC "-//W3C//DTD SVG 1.1//EN" "http://www.w3.org/Graphics/SVG/1.1/DTD/svg11.dtd">
<svg xmlns="http://www.w3.org/2000/svg" xmlns:xlink="http://www.w3.org/1999/xlink" version="1.1" width="640" height="480" viewBox="0 0 640 480" xml:space="preserve">
<desc>Created with Fabric.js 3.6.6</desc>
<defs>
</defs>
<g transform="matrix(1 0 0 1 71.34 67.26)"  >
<path xmlns="http://www.w3.org/2000/svg" d="M206.468,195.249c0.317-0.305,0.631-0.611,0.941-0.921c3.577-0.163,4.161,5.61-0.93,15.153    c0.121,0.005,0.358,0.015,0.477,0.022c1.405,1.385,2.834,2.749,4.249,4.125c5.47-11.042,24.513-5.367,34.523-3.696    c13.116-0.822,14.49-2.147,24.117-10.033c4.233-1.861,6.369-0.518,7.133,1.355c0.062,2.154-0.415,4.301-0.387,6.447    c2.013,1.842,4.062,3.648,6.088,5.475c3.604,0.367,8.075,0.848,8.567,2.316c-1.366,1.343-6.583,4.107-10.929,6.411    c-0.026,3.661-4.636,5.679-8.061,6.907c-0.672,1.444-2.199,2.336-3.78,2.3c-0.307-0.303-0.611-0.606-0.908-0.911    c-1.359,0.827-3.526,0.583-3.861-1.404c-0.144-0.003-0.285-0.003-0.42,0c-0.191,5.193-9.771,11.858-10.771,12.037    c-2.639,0.587-7.82,1.73-9.113,2.953c-0.295,20.325,4.523,15.286,5.197,20.409c-1.27,0.61-2.532,1.233-3.802,1.839    c-0.152-0.154-0.298-0.301-0.442-0.447c-0.322-0.01-0.641-0.013-0.956-0.012c-0.005,0.105-0.015,0.315-0.02,0.419    c1.432,0.251,3.223,2.281,3.779,3.281c0.017,0.685,0.064,1.383-0.037,2.065c-0.233,0.469-0.752,0.692-1.206,0.893    c-6.835,2.567-9.988,2.236-12.935-13.093c-0.166,0.152-0.33,0.307-0.489,0.466c-1.621-0.013-3.243,0.008-4.862-0.012    c-3.098-4.273-4.242-22.382-7.349-23.927c-12.837,4.478-9.066,15.662-7.659,21.641c-0.809,0.432-1.566,0.963-2.395,1.352    c-8.03,0.331-3.097-4.601-3.527-26.113c-0.131-5.74-0.898-4.934,1.641-13.868c-1.043-2.872-4.129-5.768-6.601-7.798    C201.829,207.25,206.363,205.437,206.468,195.249 M230.082,240.059c-0.449,1.752-0.925,3.499-1.347,5.257    c0.263,2.184,1.166,9.252,3.306,9.723c-0.034-0.96-1.197-12.016-1.434-14.288c0.156-0.156,0.312-0.312,0.476-0.459    c-0.176-0.169-0.343-0.33-0.511-0.494C230.394,239.854,230.057,239.757,230.082,240.059z"/>
</g>
</svg>
